<svg width="38" height="36" viewBox="0 0 38 36" fill="none" xmlns="http://www.w3.org/2000/svg">
<mask id="path-1-outside-1_2778_14778" maskUnits="userSpaceOnUse" x="0" y="3.11428" width="38" height="30" fill="black">
<rect fill="white" y="3.11428" width="38" height="30"/>
<path d="M36.8483 21.1063L29.4708 14.148V12.5691L33.5749 15.0017L36.1951 10.7691L26.4134 4.842L18.964 9.32657L12.2526 4.11428L1 13.2017L3.94685 16.83L1.85628 18.1389L4.186 21.9394L9.95114 18.4911V18.9077L2.56342 27.918L6.364 31.0269L9.95371 26.7094V32.0837H15.328V27.0874L20.8283 30.7723L23.5103 26.8817L22.9086 26.4677L24.1017 25.8634V32.0554H29.4631V27.666L34.2717 30.6823L36.8534 26.73L33.5028 24.552L36.8483 21.1063ZM20.6148 29.682C19.6068 29.0083 14.5308 25.6037 14.5308 25.6037C14.5308 25.6037 14.5308 30.1757 14.5308 31.2917C13.582 31.2917 11.6869 31.2917 10.738 31.2917C10.738 30.1423 10.738 24.5212 10.738 24.5212C10.738 24.5212 6.994 29.0237 6.256 29.9186C5.55914 29.3503 4.37114 28.3757 3.67171 27.8049C4.54343 26.7429 10.7406 19.1854 10.7406 19.1854V17.0923L4.45086 20.8543L2.93886 18.3909L10.7406 13.6594V10.6277L4.21429 15.9043C3.48657 15.0043 2.51714 13.8163 2.11085 13.3174C3.16257 12.4689 12.2629 5.11971 12.2629 5.11971L20.89 11.8209L18.9871 14.3126L14.5231 10.9209V14.9066L21.7026 17.6503L20.5891 20.5534L14.5103 18.3214V21.726C14.5103 21.726 22.3146 27.0283 22.402 27.0874C21.9057 27.81 21.1086 28.9646 20.6148 29.682ZM5.67485 15.7911L9.946 12.294V13.2094L5.67485 15.7911ZM24.0426 11.79L20.1829 16.2463L15.3126 14.3666V12.4586L19.1311 15.3952L20.1674 14.0889L24.0426 11.79ZM19.0797 23.1866L18.4986 23.4797L15.2971 21.3043V19.4246L16.894 20.0186L16.2511 20.7591L19.0797 23.1866ZM17.2977 20.7617L17.6654 20.3272L20.5686 21.4123L19.576 22.5874L17.2977 20.7617ZM35.7426 26.9537L34.0197 29.592L28.6583 26.2234C28.6583 26.2234 28.6583 30.1937 28.6583 31.2557H24.8757C24.8757 30.0523 24.8757 24.5674 24.8757 24.5674L22.1371 25.9509L19.2263 23.976L24.8269 21.0574V16.5729L21.5251 20.3297L22.7183 17.1514L20.9671 16.5163L24.8063 12.0754V10.3809L21.4943 12.366L21.9983 11.6666L19.612 9.83828C21.376 8.77371 25.8169 6.10714 26.398 5.75486C27.0949 6.17914 33.9606 10.3423 35.0894 11.0237C34.6086 11.8003 33.7703 13.158 33.2997 13.914C32.3663 13.3611 28.6686 11.1754 28.6686 11.1754V14.4746C28.6686 14.4746 34.7217 20.1909 35.7117 21.1217C35.0689 21.78 33.9786 22.9063 33.4077 23.4977C32.878 22.9886 28.6814 19.0466 28.6814 19.0466V22.4794L35.7426 26.9537ZM20.9826 22.1709L24.0863 18.6171V20.5843L20.9826 22.1709ZM33.184 24.3746L29.4811 22.05V20.826L33.184 24.3746Z"/>
</mask>
<path d="M36.8483 21.1063L29.4708 14.148V12.5691L33.5749 15.0017L36.1951 10.7691L26.4134 4.842L18.964 9.32657L12.2526 4.11428L1 13.2017L3.94685 16.83L1.85628 18.1389L4.186 21.9394L9.95114 18.4911V18.9077L2.56342 27.918L6.364 31.0269L9.95371 26.7094V32.0837H15.328V27.0874L20.8283 30.7723L23.5103 26.8817L22.9086 26.4677L24.1017 25.8634V32.0554H29.4631V27.666L34.2717 30.6823L36.8534 26.73L33.5028 24.552L36.8483 21.1063ZM20.6148 29.682C19.6068 29.0083 14.5308 25.6037 14.5308 25.6037C14.5308 25.6037 14.5308 30.1757 14.5308 31.2917C13.582 31.2917 11.6869 31.2917 10.738 31.2917C10.738 30.1423 10.738 24.5212 10.738 24.5212C10.738 24.5212 6.994 29.0237 6.256 29.9186C5.55914 29.3503 4.37114 28.3757 3.67171 27.8049C4.54343 26.7429 10.7406 19.1854 10.7406 19.1854V17.0923L4.45086 20.8543L2.93886 18.3909L10.7406 13.6594V10.6277L4.21429 15.9043C3.48657 15.0043 2.51714 13.8163 2.11085 13.3174C3.16257 12.4689 12.2629 5.11971 12.2629 5.11971L20.89 11.8209L18.9871 14.3126L14.5231 10.9209V14.9066L21.7026 17.6503L20.5891 20.5534L14.5103 18.3214V21.726C14.5103 21.726 22.3146 27.0283 22.402 27.0874C21.9057 27.81 21.1086 28.9646 20.6148 29.682ZM5.67485 15.7911L9.946 12.294V13.2094L5.67485 15.7911ZM24.0426 11.79L20.1829 16.2463L15.3126 14.3666V12.4586L19.1311 15.3952L20.1674 14.0889L24.0426 11.79ZM19.0797 23.1866L18.4986 23.4797L15.2971 21.3043V19.4246L16.894 20.0186L16.2511 20.7591L19.0797 23.1866ZM17.2977 20.7617L17.6654 20.3272L20.5686 21.4123L19.576 22.5874L17.2977 20.7617ZM35.7426 26.9537L34.0197 29.592L28.6583 26.2234C28.6583 26.2234 28.6583 30.1937 28.6583 31.2557H24.8757C24.8757 30.0523 24.8757 24.5674 24.8757 24.5674L22.1371 25.9509L19.2263 23.976L24.8269 21.0574V16.5729L21.5251 20.3297L22.7183 17.1514L20.9671 16.5163L24.8063 12.0754V10.3809L21.4943 12.366L21.9983 11.6666L19.612 9.83828C21.376 8.77371 25.8169 6.10714 26.398 5.75486C27.0949 6.17914 33.9606 10.3423 35.0894 11.0237C34.6086 11.8003 33.7703 13.158 33.2997 13.914C32.3663 13.3611 28.6686 11.1754 28.6686 11.1754V14.4746C28.6686 14.4746 34.7217 20.1909 35.7117 21.1217C35.0689 21.78 33.9786 22.9063 33.4077 23.4977C32.878 22.9886 28.6814 19.0466 28.6814 19.0466V22.4794L35.7426 26.9537ZM20.9826 22.1709L24.0863 18.6171V20.5843L20.9826 22.1709ZM33.184 24.3746L29.4811 22.05V20.826L33.184 24.3746Z" fill="black"/>
<path d="M36.8483 21.1063L29.4708 14.148V12.5691L33.5749 15.0017L36.1951 10.7691L26.4134 4.842L18.964 9.32657L12.2526 4.11428L1 13.2017L3.94685 16.83L1.85628 18.1389L4.186 21.9394L9.95114 18.4911V18.9077L2.56342 27.918L6.364 31.0269L9.95371 26.7094V32.0837H15.328V27.0874L20.8283 30.7723L23.5103 26.8817L22.9086 26.4677L24.1017 25.8634V32.0554H29.4631V27.666L34.2717 30.6823L36.8534 26.73L33.5028 24.552L36.8483 21.1063ZM20.6148 29.682C19.6068 29.0083 14.5308 25.6037 14.5308 25.6037C14.5308 25.6037 14.5308 30.1757 14.5308 31.2917C13.582 31.2917 11.6869 31.2917 10.738 31.2917C10.738 30.1423 10.738 24.5212 10.738 24.5212C10.738 24.5212 6.994 29.0237 6.256 29.9186C5.55914 29.3503 4.37114 28.3757 3.67171 27.8049C4.54343 26.7429 10.7406 19.1854 10.7406 19.1854V17.0923L4.45086 20.8543L2.93886 18.3909L10.7406 13.6594V10.6277L4.21429 15.9043C3.48657 15.0043 2.51714 13.8163 2.11085 13.3174C3.16257 12.4689 12.2629 5.11971 12.2629 5.11971L20.89 11.8209L18.9871 14.3126L14.5231 10.9209V14.9066L21.7026 17.6503L20.5891 20.5534L14.5103 18.3214V21.726C14.5103 21.726 22.3146 27.0283 22.402 27.0874C21.9057 27.81 21.1086 28.9646 20.6148 29.682ZM5.67485 15.7911L9.946 12.294V13.2094L5.67485 15.7911ZM24.0426 11.79L20.1829 16.2463L15.3126 14.3666V12.4586L19.1311 15.3952L20.1674 14.0889L24.0426 11.79ZM19.0797 23.1866L18.4986 23.4797L15.2971 21.3043V19.4246L16.894 20.0186L16.2511 20.7591L19.0797 23.1866ZM17.2977 20.7617L17.6654 20.3272L20.5686 21.4123L19.576 22.5874L17.2977 20.7617ZM35.7426 26.9537L34.0197 29.592L28.6583 26.2234C28.6583 26.2234 28.6583 30.1937 28.6583 31.2557H24.8757C24.8757 30.0523 24.8757 24.5674 24.8757 24.5674L22.1371 25.9509L19.2263 23.976L24.8269 21.0574V16.5729L21.5251 20.3297L22.7183 17.1514L20.9671 16.5163L24.8063 12.0754V10.3809L21.4943 12.366L21.9983 11.6666L19.612 9.83828C21.376 8.77371 25.8169 6.10714 26.398 5.75486C27.0949 6.17914 33.9606 10.3423 35.0894 11.0237C34.6086 11.8003 33.7703 13.158 33.2997 13.914C32.3663 13.3611 28.6686 11.1754 28.6686 11.1754V14.4746C28.6686 14.4746 34.7217 20.1909 35.7117 21.1217C35.0689 21.78 33.9786 22.9063 33.4077 23.4977C32.878 22.9886 28.6814 19.0466 28.6814 19.0466V22.4794L35.7426 26.9537ZM20.9826 22.1709L24.0863 18.6171V20.5843L20.9826 22.1709ZM33.184 24.3746L29.4811 22.05V20.826L33.184 24.3746Z" stroke="black" stroke-width="0.5" mask="url(#path-1-outside-1_2778_14778)"/>
</svg>
