<?xml version="1.0" encoding="utf-8"?>
<!-- Generator: Adobe Illustrator 20.0.0, SVG Export Plug-In . SVG Version: 6.00 Build 0)  -->
<svg version="1.1" id="Layer_1" xmlns="http://www.w3.org/2000/svg" xmlns:xlink="http://www.w3.org/1999/xlink" x="0px" y="0px"
	 viewBox="0 0 77.1 13.8" style="enable-background:new 0 0 77.1 13.8;" xml:space="preserve">
<style type="text/css">
	.st0{fill:#000000;}
</style>
<path class="st0" d="M7.2,10.9C7.7,10.2,8,9.3,8,8.1S7.7,6,7.2,5.3s-1.2-1-2.1-1S3.5,4.6,3,5.3S2.2,6.9,2.2,8.1s0.3,2.1,0.8,2.8
	s1.2,1,2.1,1S6.7,11.5,7.2,10.9 M8.6,12.5c-0.8,0.8-2,1.3-3.5,1.3s-2.7-0.4-3.5-1.3C0.5,11.5,0,10,0,8.1c0-2,0.5-3.4,1.6-4.4
	c0.8-0.8,2-1.3,3.5-1.3s2.7,0.4,3.5,1.3c1.1,1,1.6,2.5,1.6,4.4S9.7,11.5,8.6,12.5"/>
<path class="st0" d="M15,2.6c0.1,0,0.3,0,0.4,0v1.7c-0.1,0-0.3,0-0.6,0s-0.5,0.1-0.6,0.2C14.1,4.6,14,4.8,14,4.9v0.7h1.4v1.5H14v6.4
	h-2.1V7.1h-1V5.6H12V5.1c0-0.8,0.1-1.4,0.4-1.8c0.3-0.5,1-0.7,2.2-0.7C14.8,2.6,14.9,2.6,15,2.6"/>
<path class="st0" d="M20,2.6c0.1,0,0.3,0,0.4,0v1.7c-0.1,0-0.3,0-0.6,0s-0.5,0.1-0.6,0.2C19.1,4.6,19,4.8,19,4.9v0.7h1.4v1.5H19v6.4
	h-2.1V7.1h-1V5.6H17V5.1c0-0.8,0.1-1.4,0.4-1.8c0.3-0.5,1-0.7,2.2-0.7C19.7,2.6,19.9,2.6,20,2.6"/>
<rect x="21" y="8.3" class="st0" width="4.1" height="2"/>
<polygon class="st0" points="28.2,2.7 29.6,8.9 29.9,10.6 30.2,8.9 31.5,2.7 33.8,2.7 35.1,8.9 35.4,10.6 35.7,8.9 37.2,2.7 
	39.5,2.7 36.4,13.4 34.3,13.4 33,7.2 32.6,5.1 32.2,7.2 31,13.4 28.9,13.4 25.8,2.7 "/>
<path class="st0" d="M46.3,5.6c0.4,0.2,0.7,0.4,1,0.8c0.2,0.3,0.3,0.6,0.4,0.9c0,0.3,0.1,0.8,0.1,1.5v4.7h-2.1V8.7
	c0-0.4-0.1-0.8-0.2-1c-0.2-0.4-0.5-0.6-1.1-0.6c-0.5,0-1,0.2-1.2,0.5c-0.3,0.4-0.4,0.9-0.4,1.6v4.3h-2.1V2.8h2.1v3.8
	c0.3-0.5,0.6-0.8,1-1s0.8-0.3,1.2-0.3C45.5,5.3,45.9,5.4,46.3,5.6"/>
<path class="st0" d="M49.7,5.5h2.1v7.9h-2.1V5.5z M51.8,4.6h-2.1V2.7h2.1V4.6z"/>
<path class="st0" d="M53,7.1V5.6h1.1V3.4h2v2.2h1.3v1.5h-1.3v4.2c0,0.3,0,0.5,0.1,0.6S56.5,12,57,12c0.1,0,0.1,0,0.2,0
	c0.1,0,0.1,0,0.2,0v1.5h-1c-1,0-1.6-0.1-2-0.5c-0.2-0.2-0.3-0.6-0.3-1.1V7L53,7.1L53,7.1z"/>
<path class="st0" d="M60.9,7.5c-0.3,0.3-0.5,0.7-0.6,1.2h3.6c0-0.5-0.2-1-0.6-1.3C63,7.1,62.6,7,62.1,7S61.2,7.2,60.9,7.5 M64,5.7
	c0.6,0.2,1,0.6,1.4,1.2c0.3,0.5,0.5,1,0.6,1.6c0.1,0.4,0.1,0.9,0.1,1.6h-5.8c0,0.8,0.3,1.4,0.8,1.7c0.3,0.2,0.7,0.3,1.1,0.3
	c0.5,0,0.9-0.1,1.1-0.4c0.2-0.1,0.3-0.3,0.4-0.5h2.1c-0.1,0.5-0.3,0.9-0.8,1.4c-0.7,0.8-1.7,1.2-3,1.2c-1.1,0-2-0.3-2.8-1
	c-0.8-0.6-1.2-1.7-1.2-3.2c0-1.4,0.4-2.4,1.1-3.2c0.7-0.7,1.7-1.1,2.8-1.1C62.8,5.3,63.4,5.4,64,5.7"/>
<polygon class="st0" points="70.7,0 70.7,1 69,1 69,5.8 67.8,5.8 67.8,1 66,1 66,0 "/>
<path class="st0" d="M75.3,0h1.8v5.8h-1.2V1.9c0-0.1,0-0.3,0-0.5s0-0.4,0-0.5l-1.1,4.9h-1.2l-1.1-4.9c0,0.1,0,0.3,0,0.5s0,0.4,0,0.5
	v3.9h-1.1V0h1.8l1.1,4.6L75.3,0z"/>
</svg>
